mtllib GroundPlane.mtl
g Disc

# Vertex Positions:
v 4.35423 0 -0.27395
v 4.32844 0 -0.54681
v -0 0 -0
v 4.28556 0 -0.81752
v 4.22577 0 -1.08499
v 4.14931 0 -1.34819
v 4.05647 0 -1.60607
v 3.94761 0 -1.85761
v 3.82319 0 -2.10181
v 3.68367 0 -2.33773
v 3.52961 0 -2.56441
v 3.36163 0 -2.78098
v 3.18037 0 -2.98657
v 2.98657 0 -3.18037
v 2.78098 0 -3.36163
v 2.56441 0 -3.52961
v 2.33773 0 -3.68367
v 2.10181 0 -3.82319
v 1.85761 0 -3.94762
v 1.60607 0 -4.05647
v 1.34819 0 -4.14931
v 1.08499 0 -4.22577
v 0.81751 0 -4.28556
v 0.54681 0 -4.32844
v 0.27394 0 -4.35423
v -0 0 -4.36284
v -0.27395 0 -4.35423
v -0.54681 0 -4.32844
v -0.81752 0 -4.28556
v -1.08499 0 -4.22577
v -1.34819 0 -4.14931
v -1.60607 0 -4.05647
v -1.85761 0 -3.94762
v -2.10182 0 -3.82319
v -2.33773 0 -3.68367
v -2.56441 0 -3.52961
v -2.78098 0 -3.36163
v -2.98657 0 -3.18037
v -3.18038 0 -2.98657
v -3.36163 0 -2.78098
v -3.52961 0 -2.56441
v -3.68367 0 -2.33773
v -3.82319 0 -2.10181
v -3.94762 0 -1.85761
v -4.05647 0 -1.60607
v -4.14931 0 -1.34819
v -4.22577 0 -1.08499
v -4.28556 0 -0.81752
v -4.32844 0 -0.54681
v -4.35423 0 -0.27395
v -4.36284 0 -0
v -4.35423 0 0.27394
v -4.32844 0 0.54681
v -4.28556 0 0.81751
v -4.22578 0 1.08499
v -4.14931 0 1.34819
v -4.05647 0 1.60607
v -3.94762 0 1.85761
v -3.82319 0 2.10181
v -3.68367 0 2.33773
v -3.52961 0 2.56441
v -3.36163 0 2.78098
v -3.18038 0 2.98657
v -2.98657 0 3.18037
v -2.78098 0 3.36163
v -2.56441 0 3.52961
v -2.33773 0 3.68367
v -2.10182 0 3.82319
v -1.85761 0 3.94762
v -1.60607 0 4.05647
v -1.34819 0 4.14931
v -1.08499 0 4.22577
v -0.81752 0 4.28556
v -0.54681 0 4.32844
v -0.27395 0 4.35423
v -0 0 4.36284
v 0.27394 0 4.35423
v 0.54681 0 4.32844
v 0.81751 0 4.28556
v 1.08499 0 4.22577
v 1.34819 0 4.14931
v 1.60607 0 4.05647
v 1.85761 0 3.94762
v 2.10181 0 3.82319
v 2.33773 0 3.68367
v 2.56441 0 3.52961
v 2.78098 0 3.36163
v 2.98657 0 3.18037
v 3.18037 0 2.98657
v 3.36163 0 2.78098
v 3.52961 0 2.56441
v 3.68367 0 2.33773
v 3.82319 0 2.10181
v 3.94762 0 1.85761
v 4.05647 0 1.60607
v 4.14931 0 1.34819
v 4.22577 0 1.08499
v 4.28556 0 0.81751
v 4.32844 0 0.54681
v 4.35423 0 0.27394
v 4.36284 0 -0

# Vertex Texture Coordinates:
vt 0.99901 0.5314 
vt 0.99606 0.56267 
vt 0.5 0.5 
vt 0.99114 0.59369 
vt 0.98429 0.62435 
vt 0.97553 0.65451 
vt 0.96489 0.68406 
vt 0.95241 0.71289 
vt 0.93815 0.74088 
vt 0.92216 0.76791 
vt 0.90451 0.79389 
vt 0.88526 0.81871 
vt 0.86448 0.84227 
vt 0.84227 0.86448 
vt 0.81871 0.88526 
vt 0.79389 0.90451 
vt 0.76791 0.92216 
vt 0.74088 0.93815 
vt 0.71289 0.95241 
vt 0.68406 0.96489 
vt 0.65451 0.97553 
vt 0.62435 0.98429 
vt 0.59369 0.99114 
vt 0.56267 0.99606 
vt 0.5314 0.99901 
vt 0.5 1 
vt 0.46861 0.99901 
vt 0.43733 0.99606 
vt 0.40631 0.99114 
vt 0.37565 0.98429 
vt 0.34549 0.97553 
vt 0.31594 0.96489 
vt 0.28711 0.95241 
vt 0.25912 0.93815 
vt 0.23209 0.92216 
vt 0.20611 0.90451 
vt 0.18129 0.88526 
vt 0.15773 0.86448 
vt 0.13552 0.84227 
vt 0.11474 0.81871 
vt 0.09549 0.79389 
vt 0.07784 0.76791 
vt 0.06185 0.74088 
vt 0.04759 0.71289 
vt 0.03511 0.68406 
vt 0.02447 0.65451 
vt 0.01571 0.62435 
vt 0.00886 0.59369 
vt 0.00394 0.56267 
vt 0.00099 0.5314 
vt 0 0.5 
vt 0.00099 0.46861 
vt 0.00394 0.43733 
vt 0.00886 0.40631 
vt 0.01571 0.37565 
vt 0.02447 0.34549 
vt 0.03511 0.31594 
vt 0.04759 0.28711 
vt 0.06185 0.25912 
vt 0.07784 0.23209 
vt 0.09549 0.20611 
vt 0.11474 0.18129 
vt 0.13552 0.15773 
vt 0.15773 0.13552 
vt 0.18129 0.11474 
vt 0.20611 0.09549 
vt 0.23209 0.07784 
vt 0.25912 0.06185 
vt 0.28711 0.04759 
vt 0.31594 0.03511 
vt 0.34549 0.02447 
vt 0.37565 0.01571 
vt 0.40631 0.00886 
vt 0.43733 0.00394 
vt 0.46861 0.00099 
vt 0.5 -0 
vt 0.5314 0.00099 
vt 0.56267 0.00394 
vt 0.59369 0.00886 
vt 0.62435 0.01571 
vt 0.65451 0.02447 
vt 0.68406 0.03511 
vt 0.71289 0.04759 
vt 0.74088 0.06185 
vt 0.76791 0.07784 
vt 0.79389 0.09549 
vt 0.81871 0.11474 
vt 0.84227 0.13552 
vt 0.86448 0.15773 
vt 0.88526 0.18129 
vt 0.90451 0.20611 
vt 0.92216 0.23209 
vt 0.93815 0.25912 
vt 0.95241 0.28711 
vt 0.96489 0.31594 
vt 0.97553 0.34549 
vt 0.98429 0.37565 
vt 0.99114 0.40631 
vt 0.99606 0.43733 
vt 0.99901 0.46861 
vt 1 0.5 

# Vertex Surface Normals:
vn 0 2.29208 0
vn 0 2.29208 0
vn 0 2.29208 0
vn 0 2.29208 0
vn 0 2.29208 0
vn 0 2.29208 0
vn 0 2.29208 0
vn 0 2.29208 0
vn 0 2.29208 0
vn 0 2.29208 0
vn 0 2.29208 0
vn 0 2.29208 0
vn 0 2.29208 0
vn 0 2.29208 0
vn 0 2.29208 0
vn 0 2.29208 0
vn 0 2.29208 0
vn 0 2.29208 0
vn 0 2.29208 0
vn 0 2.29208 0
vn 0 2.29208 0
vn 0 2.29208 0
vn 0 2.29208 0
vn 0 2.29208 0
vn 0 2.29208 0
vn 0 2.29208 0
vn 0 2.29208 0
vn 0 2.29208 0
vn 0 2.29208 0
vn 0 2.29208 0
vn 0 2.29208 0
vn 0 2.29208 0
vn 0 2.29208 0
vn 0 2.29208 0
vn 0 2.29208 0
vn 0 2.29208 0
vn 0 2.29208 0
vn 0 2.29208 0
vn 0 2.29208 0
vn 0 2.29208 0
vn 0 2.29208 0
vn 0 2.29208 0
vn 0 2.29208 0
vn 0 2.29208 0
vn 0 2.29208 0
vn 0 2.29208 0
vn 0 2.29208 0
vn 0 2.29208 0
vn 0 2.29208 0
vn 0 2.29208 0
vn 0 2.29208 0
vn 0 2.29208 0
vn 0 2.29208 0
vn 0 2.29208 0
vn 0 2.29208 0
vn 0 2.29208 0
vn 0 2.29208 0
vn 0 2.29208 0
vn 0 2.29208 0
vn 0 2.29208 0
vn 0 2.29208 0
vn 0 2.29208 0
vn 0 2.29208 0
vn 0 2.29208 0
vn 0 2.29208 0
vn 0 2.29208 0
vn 0 2.29208 0
vn 0 2.29208 0
vn 0 2.29208 0
vn 0 2.29208 0
vn 0 2.29208 0
vn 0 2.29208 0
vn 0 2.29208 0
vn 0 2.29208 0
vn 0 2.29208 0
vn 0 2.29208 0
vn 0 2.29208 0
vn 0 2.29208 0
vn 0 2.29208 0
vn 0 2.29208 0
vn 0 2.29208 0
vn 0 2.29208 0
vn 0 2.29208 0
vn 0 2.29208 0
vn 0 2.29208 0
vn 0 2.29208 0
vn 0 2.29208 0
vn 0 2.29208 0
vn 0 2.29208 0
vn 0 2.29208 0
vn 0 2.29208 0
vn 0 2.29208 0
vn 0 2.29208 0
vn 0 2.29208 0
vn 0 2.29208 0
vn 0 2.29208 0
vn 0 2.29208 0
vn 0 2.29208 0
vn 0 2.29208 0
vn 0 2.29208 0
vn 0 2.29208 0

# Faces:
usemtl Disc Material Layer Stack
f 1/1/1 2/2/2 3/3/3
f 2/2/2 4/4/4 3/3/3
f 4/4/4 5/5/5 3/3/3
f 5/5/5 6/6/6 3/3/3
f 6/6/6 7/7/7 3/3/3
f 7/7/7 8/8/8 3/3/3
f 8/8/8 9/9/9 3/3/3
f 9/9/9 10/10/10 3/3/3
f 10/10/10 11/11/11 3/3/3
f 11/11/11 12/12/12 3/3/3
f 12/12/12 13/13/13 3/3/3
f 13/13/13 14/14/14 3/3/3
f 14/14/14 15/15/15 3/3/3
f 15/15/15 16/16/16 3/3/3
f 16/16/16 17/17/17 3/3/3
f 17/17/17 18/18/18 3/3/3
f 18/18/18 19/19/19 3/3/3
f 19/19/19 20/20/20 3/3/3
f 20/20/20 21/21/21 3/3/3
f 21/21/21 22/22/22 3/3/3
f 22/22/22 23/23/23 3/3/3
f 23/23/23 24/24/24 3/3/3
f 24/24/24 25/25/25 3/3/3
f 25/25/25 26/26/26 3/3/3
f 26/26/26 27/27/27 3/3/3
f 27/27/27 28/28/28 3/3/3
f 28/28/28 29/29/29 3/3/3
f 29/29/29 30/30/30 3/3/3
f 30/30/30 31/31/31 3/3/3
f 31/31/31 32/32/32 3/3/3
f 32/32/32 33/33/33 3/3/3
f 33/33/33 34/34/34 3/3/3
f 34/34/34 35/35/35 3/3/3
f 35/35/35 36/36/36 3/3/3
f 36/36/36 37/37/37 3/3/3
f 37/37/37 38/38/38 3/3/3
f 38/38/38 39/39/39 3/3/3
f 39/39/39 40/40/40 3/3/3
f 40/40/40 41/41/41 3/3/3
f 41/41/41 42/42/42 3/3/3
f 42/42/42 43/43/43 3/3/3
f 43/43/43 44/44/44 3/3/3
f 44/44/44 45/45/45 3/3/3
f 45/45/45 46/46/46 3/3/3
f 46/46/46 47/47/47 3/3/3
f 47/47/47 48/48/48 3/3/3
f 48/48/48 49/49/49 3/3/3
f 49/49/49 50/50/50 3/3/3
f 50/50/50 51/51/51 3/3/3
f 51/51/51 52/52/52 3/3/3
f 52/52/52 53/53/53 3/3/3
f 53/53/53 54/54/54 3/3/3
f 54/54/54 55/55/55 3/3/3
f 55/55/55 56/56/56 3/3/3
f 56/56/56 57/57/57 3/3/3
f 57/57/57 58/58/58 3/3/3
f 58/58/58 59/59/59 3/3/3
f 59/59/59 60/60/60 3/3/3
f 60/60/60 61/61/61 3/3/3
f 61/61/61 62/62/62 3/3/3
f 62/62/62 63/63/63 3/3/3
f 63/63/63 64/64/64 3/3/3
f 64/64/64 65/65/65 3/3/3
f 65/65/65 66/66/66 3/3/3
f 66/66/66 67/67/67 3/3/3
f 67/67/67 68/68/68 3/3/3
f 68/68/68 69/69/69 3/3/3
f 69/69/69 70/70/70 3/3/3
f 70/70/70 71/71/71 3/3/3
f 71/71/71 72/72/72 3/3/3
f 72/72/72 73/73/73 3/3/3
f 73/73/73 74/74/74 3/3/3
f 74/74/74 75/75/75 3/3/3
f 75/75/75 76/76/76 3/3/3
f 76/76/76 77/77/77 3/3/3
f 77/77/77 78/78/78 3/3/3
f 78/78/78 79/79/79 3/3/3
f 79/79/79 80/80/80 3/3/3
f 80/80/80 81/81/81 3/3/3
f 81/81/81 82/82/82 3/3/3
f 82/82/82 83/83/83 3/3/3
f 83/83/83 84/84/84 3/3/3
f 84/84/84 85/85/85 3/3/3
f 85/85/85 86/86/86 3/3/3
f 86/86/86 87/87/87 3/3/3
f 87/87/87 88/88/88 3/3/3
f 88/88/88 89/89/89 3/3/3
f 89/89/89 90/90/90 3/3/3
f 90/90/90 91/91/91 3/3/3
f 91/91/91 92/92/92 3/3/3
f 92/92/92 93/93/93 3/3/3
f 93/93/93 94/94/94 3/3/3
f 94/94/94 95/95/95 3/3/3
f 95/95/95 96/96/96 3/3/3
f 96/96/96 97/97/97 3/3/3
f 97/97/97 98/98/98 3/3/3
f 98/98/98 99/99/99 3/3/3
f 99/99/99 100/100/100 3/3/3
f 100/100/100 101/101/101 3/3/3
f 101/101/101 1/1/1 3/3/3
