g PROCEDURAL_MESHES_CUBE#0

# Vertex Positions:
v -10 0 -10
v -10 0 -10
v 10 20 -10
v -10 20 -10
v 10 0 10
v 10 0 10
v 10 0 10
v -10 0 -10
v -10 0 -10
v 10 20 10
v 10 20 10
v -10 0 10
v -10 20 -10
v -10 20 -10
v 10 20 10
v -10 20 10
v -10 20 10
v 10 20 10
v 10 20 10
v 10 0 10
v 10 0 -10
v 10 0 -10
v -10 20 10
v -10 20 10
v -10 0 10
v -10 0 10
v -10 0 10
v -10 0 10
v 10 0 -10
v 10 0 -10
v 10 0 -10
v 10 20 -10
v 10 20 -10
v -10 20 -10
v -10 20 -10
v 10 20 -10

# Vertex Texture Coordinates:
vt 0.75 0.25 
vt 0.5 0 
vt 0.5 0.5 
vt 0.75 0.5 
vt 0.25 0.25 
vt 0.25 0.25 
vt 0.25 0.25 
vt 0.75 0.25 
vt 0.75 0.25 
vt 0.25 0.5 
vt 0.25 0.5 
vt 1 0.25 
vt 0.75 0.5 
vt 0.75 0.5 
vt 0.25 0.5 
vt 1 0.5 
vt 1 0.5 
vt 0.25 0.5 
vt 0.25 0.5 
vt 0.25 0.25 
vt 0.5 0.25 
vt 0.5 0.25 
vt 0.25 0.75 
vt 0 0.5 
vt 0.25 0 
vt 0.25 0 
vt 0 0.25 
vt 0 0.25 
vt 0.5 0.25 
vt 0.5 0.25 
vt 0.5 0.25 
vt 0.5 0.5 
vt 0.5 0.5 
vt 0.5 0.75 
vt 0.5 0.75 
vt 0.5 0.5 

# Vertex Surface Normals:
vn -0 -0 -1
vn -0 -1 0
vn -0 0 -1
vn -1 0 0
vn -0 -1 0
vn 1 0 0
vn 1 0 0
vn -1 0 0
vn -1 0 0
vn -0 1 0
vn -0 1 0
vn -1 0 0
vn -0 -0 -1
vn -0 -0 -1
vn 1 0 0
vn -1 0 0
vn -1 0 0
vn -0 0 1
vn -0 0 1
vn -0 0 1
vn -0 -1 0
vn -0 -1 0
vn -0 1 0
vn -0 0 1
vn -0 -1 0
vn -0 -1 0
vn -0 0 1
vn -0 0 1
vn -0 -0 -1
vn -0 -0 -1
vn 1 0 0
vn 1 0 0
vn 1 0 0
vn -0 1 0
vn -0 1 0
vn -0 1 0

# Faces:
f 7/7/7 31/31/31 33/33/33
f 6/6/6 32/32/32 15/15/15
f 9/9/9 12/12/12 17/17/17
f 8/8/8 16/16/16 4/4/4
f 29/29/29 1/1/1 13/13/13
f 30/30/30 14/14/14 3/3/3
f 28/28/28 20/20/20 19/19/19
f 27/27/27 18/18/18 24/24/24
f 10/10/10 36/36/36 35/35/35
f 11/11/11 34/34/34 23/23/23
f 25/25/25 2/2/2 21/21/21
f 26/26/26 22/22/22 5/5/5
